<?xml version="1.0" encoding="iso-8859-1"?>
<!-- Generator: Adobe Illustrator 21.0.0, SVG Export Plug-In . SVG Version: 6.00 Build 0)  -->
<svg xmlns="http://www.w3.org/2000/svg" xmlns:xlink="http://www.w3.org/1999/xlink" version="1.1" id="Capa_1" x="0px" y="0px" viewBox="0 0 512 512" style="enable-background:new 0 0 512 512;" xml:space="preserve" width="512" height="512">
<path d="M439.748,455.906C365.392,416.566,319.2,339.967,319.2,256S365.392,95.434,439.748,56.094  c4.912-2.599,7.985-7.701,7.985-13.258c0-5.557-3.072-10.659-7.984-13.258C403.185,10.228,361.868,0,320.267,0  c-141.159,0-256,114.841-256,256s114.841,256,256,256c41.602,0,82.918-10.228,119.482-29.578c4.912-2.599,7.984-7.701,7.984-13.258  C447.733,463.606,444.66,458.505,439.748,455.906z M320.267,482c-124.617,0-226-101.383-226-226s101.383-226,226-226  c27.477,0,54.805,5.05,80.336,14.741C331.236,92.19,289.2,170.74,289.2,256s42.036,163.81,111.402,211.259  C375.071,476.95,347.743,482,320.267,482z"/>















</svg>
